<mxfile host="app.diagrams.net" modified="2021-12-16T19:50:52.555Z" agent="5.0 (Windows NT 10.0; Win64; x64) AppleWebKit/537.36 (KHTML, like Gecko) Chrome/96.0.4664.110 Safari/537.36" etag="XyhzPWHOnER6EZRg-xVr" version="15.9.4" type="github">
  <diagram id="dr8xThEqkj9P6_olyy3B" name="第 3 页">
    <mxGraphModel dx="1967" dy="677" grid="1" gridSize="10" guides="1" tooltips="1" connect="1" arrows="1" fold="1" page="1" pageScale="1" pageWidth="850" pageHeight="1100" math="0" shadow="0">
      <root>
        <mxCell id="ochP2KZfQh1eP7kVtOjl-0" />
        <mxCell id="ochP2KZfQh1eP7kVtOjl-1" parent="ochP2KZfQh1eP7kVtOjl-0" />
        <mxCell id="UqT1MbhBOW7zlgvVnSua-14" value="" style="rounded=0;whiteSpace=wrap;html=1;" vertex="1" parent="ochP2KZfQh1eP7kVtOjl-1">
          <mxGeometry x="100" y="445" width="510" height="75" as="geometry" />
        </mxCell>
        <mxCell id="UqT1MbhBOW7zlgvVnSua-15" style="edgeStyle=orthogonalEdgeStyle;rounded=0;orthogonalLoop=1;jettySize=auto;html=1;exitX=0.5;exitY=1;exitDx=0;exitDy=0;entryX=0.5;entryY=0;entryDx=0;entryDy=0;" edge="1" parent="ochP2KZfQh1eP7kVtOjl-1" source="UqT1MbhBOW7zlgvVnSua-13" target="UqT1MbhBOW7zlgvVnSua-14">
          <mxGeometry relative="1" as="geometry" />
        </mxCell>
        <mxCell id="UqT1MbhBOW7zlgvVnSua-13" value="" style="rounded=0;whiteSpace=wrap;html=1;" vertex="1" parent="ochP2KZfQh1eP7kVtOjl-1">
          <mxGeometry x="100" y="280" width="510" height="120" as="geometry" />
        </mxCell>
        <mxCell id="ochP2KZfQh1eP7kVtOjl-2" value="Storage Blockchain" style="rounded=0;whiteSpace=wrap;html=1;" parent="ochP2KZfQh1eP7kVtOjl-1" vertex="1">
          <mxGeometry x="145" y="462.5" width="420" height="40" as="geometry" />
        </mxCell>
        <mxCell id="UqT1MbhBOW7zlgvVnSua-3" value="" style="group" vertex="1" connectable="0" parent="ochP2KZfQh1eP7kVtOjl-1">
          <mxGeometry x="140" y="290" width="130" height="90" as="geometry" />
        </mxCell>
        <mxCell id="ochP2KZfQh1eP7kVtOjl-4" value="File System Zone&lt;br&gt;(accounts-&amp;gt;files)" style="rounded=0;whiteSpace=wrap;html=1;" parent="UqT1MbhBOW7zlgvVnSua-3" vertex="1">
          <mxGeometry y="10" width="130" height="80" as="geometry" />
        </mxCell>
        <mxCell id="UqT1MbhBOW7zlgvVnSua-0" value="API" style="rounded=0;whiteSpace=wrap;html=1;" vertex="1" parent="UqT1MbhBOW7zlgvVnSua-3">
          <mxGeometry x="50" width="30" height="20" as="geometry" />
        </mxCell>
        <mxCell id="UqT1MbhBOW7zlgvVnSua-4" value="" style="group" vertex="1" connectable="0" parent="ochP2KZfQh1eP7kVtOjl-1">
          <mxGeometry x="305" y="290" width="120" height="90" as="geometry" />
        </mxCell>
        <mxCell id="ochP2KZfQh1eP7kVtOjl-5" value="Object Storage Zone&lt;br&gt;(buckets-&amp;gt;files)" style="rounded=0;whiteSpace=wrap;html=1;" parent="UqT1MbhBOW7zlgvVnSua-4" vertex="1">
          <mxGeometry y="10" width="120" height="80" as="geometry" />
        </mxCell>
        <mxCell id="UqT1MbhBOW7zlgvVnSua-1" value="API" style="rounded=0;whiteSpace=wrap;html=1;" vertex="1" parent="UqT1MbhBOW7zlgvVnSua-4">
          <mxGeometry x="50" width="30" height="20" as="geometry" />
        </mxCell>
        <mxCell id="UqT1MbhBOW7zlgvVnSua-5" value="" style="group" vertex="1" connectable="0" parent="ochP2KZfQh1eP7kVtOjl-1">
          <mxGeometry x="460" y="290" width="110" height="90" as="geometry" />
        </mxCell>
        <mxCell id="ochP2KZfQh1eP7kVtOjl-11" value="Database Zone&lt;br&gt;c/q/u/d(databases-&amp;gt;tables-&amp;gt;records)" style="rounded=0;whiteSpace=wrap;html=1;" parent="UqT1MbhBOW7zlgvVnSua-5" vertex="1">
          <mxGeometry y="10" width="110" height="80" as="geometry" />
        </mxCell>
        <mxCell id="UqT1MbhBOW7zlgvVnSua-2" value="API" style="rounded=0;whiteSpace=wrap;html=1;" vertex="1" parent="UqT1MbhBOW7zlgvVnSua-5">
          <mxGeometry x="40" width="30" height="20" as="geometry" />
        </mxCell>
        <mxCell id="UqT1MbhBOW7zlgvVnSua-6" value="Service Layer" style="rounded=0;whiteSpace=wrap;html=1;fillColor=#dae8fc;strokeColor=#6c8ebf;" vertex="1" parent="ochP2KZfQh1eP7kVtOjl-1">
          <mxGeometry x="600" y="130" width="60" height="120" as="geometry" />
        </mxCell>
        <mxCell id="UqT1MbhBOW7zlgvVnSua-7" value="Applications/Services" style="rounded=0;whiteSpace=wrap;html=1;" vertex="1" parent="ochP2KZfQh1eP7kVtOjl-1">
          <mxGeometry x="-310" y="130" width="870" height="120" as="geometry" />
        </mxCell>
        <mxCell id="UqT1MbhBOW7zlgvVnSua-10" value="" style="group" vertex="1" connectable="0" parent="ochP2KZfQh1eP7kVtOjl-1">
          <mxGeometry x="-300" y="260" width="310" height="260" as="geometry" />
        </mxCell>
        <mxCell id="UqT1MbhBOW7zlgvVnSua-8" value="Docker/Language-Specific-Containers(eg. Wasm,java,python,nodejs)" style="rounded=0;whiteSpace=wrap;html=1;fillColor=#f5f5f5;fontColor=#333333;strokeColor=#666666;" vertex="1" parent="UqT1MbhBOW7zlgvVnSua-10">
          <mxGeometry y="20" width="310" height="240" as="geometry" />
        </mxCell>
        <mxCell id="UqT1MbhBOW7zlgvVnSua-9" value="API(c/q/u/d)" style="rounded=0;whiteSpace=wrap;html=1;" vertex="1" parent="UqT1MbhBOW7zlgvVnSua-10">
          <mxGeometry x="30" width="260" height="40" as="geometry" />
        </mxCell>
      </root>
    </mxGraphModel>
  </diagram>
</mxfile>
